<?xml version="1.0" encoding="UTF-8"?>
<svg id="Layer_1" data-name="Layer 1" xmlns="http://www.w3.org/2000/svg" viewBox="0 0 608.93 435.8">
  <defs>
    <style>
      .cls-1 {
        fill: #1c4c00;
      }

      .cls-2 {
        fill: #ece3cb;
      }
    </style>
  </defs>
  <circle class="cls-2" cx="540.47" cy="237.27" r="17.91"/>
  <g>
    <path class="cls-1" d="M119.49,172.33c1.58,0,2.86,1.28,2.86,2.86,0,.51-.13.99-.37,1.4l-5.7,11.24-6.15,12.12c-.9,1.86.45,4.01,2.51,4.01h44.46c1.07,0,2.05-.61,2.51-1.57l8.26-15.98c7.37-15.17,13.72-32.57,4.96-46.56-9-14.38-27.19-15.57-46.62-15.57-41.76,0-65.93,8.83-90.28,58.98l-23.59,48.57c-11.34,23.36-16.99,41.97-7.65,56.88,9.82,15.68,30.07,17,49.98,17,41.84,0,60.96-11.72,78.69-48.23l12.87-26.33c.9-1.86-.45-4.01-2.51-4.01h-44.47c-1.07,0-2.05.61-2.51,1.57l-6.13,12.47c-7.24,14.91-8,16.47-29.17,16.47-1.95,0-3.68-.02-5.22-.05-2.01-.04-3.32-2.1-2.5-3.94.97-2.16,2.16-4.72,3.63-7.73l22.82-46.98c5.93-12.21,10.49-20.37,14.91-23.32,3.51-2.34,9.83-3.25,23.11-3.3h1.29Z"/>
    <path class="cls-1" d="M289.84,127.44l-28.83,59.36c-.47.96-1.44,1.57-2.51,1.57h-25.14c-2.06,0-3.41-2.16-2.51-4.01l26.46-54.48c.9-1.86-.45-4.01-2.51-4.01h-45.66c-1.07,0-2.05.61-2.51,1.57l-83.85,172.66c-.9,1.86.45,4.01,2.51,4.01h45.66c1.07,0,2.05-.61,2.51-1.57l30.76-63.34c.47-.96,1.44-1.57,2.51-1.57h25.33c2.06,0,3.41,2.16,2.51,4.01l-28.39,58.46c-.9,1.86.45,4.01,2.51,4.01h45.66c1.07,0,2.05-.61,2.51-1.57l83.85-172.66c.9-1.86-.45-4.01-2.51-4.01h-45.85c-1.07,0-2.05.61-2.51,1.57Z"/>
    <path class="cls-1" d="M351.14,127.44l-83.85,172.66c-.9,1.86.45,4.01,2.51,4.01h45.65c1.07,0,2.05-.61,2.51-1.57l83.85-172.66c.9-1.86-.45-4.01-2.51-4.01h-45.65c-1.07,0-2.05.61-2.51,1.57Z"/>
    <path class="cls-1" d="M515.15,140.13c-5.92-9.46-16.33-14.26-30.93-14.26h-69.45c-1.07,0-2.05.61-2.51,1.57l-83.85,172.66c-.9,1.86.45,4.01,2.51,4.01h45.66c1.07,0,2.05-.61,2.51-1.57l25.73-52.99c.47-.96,1.44-1.57,2.51-1.57h26.39c28.99,0,52.73-9.11,74.33-53.6,9.32-19.18,16.62-39.03,7.1-54.24ZM442.08,199.92h-8.7c-2.06,0-3.41-2.16-2.51-4.01l9.91-20.42c.47-.96,1.44-1.57,2.51-1.57h18.36c2.05,0,3.41,2.14,2.52,3.99-.24.5-.49,1.02-.75,1.56-9.93,20.45-13.27,20.45-21.35,20.45Z"/>
    <path class="cls-1" d="M409.68,259.13l-83.85,172.66c-.9,1.86.45,4.01,2.51,4.01h45.65c1.07,0,2.05-.61,2.51-1.57l83.85-172.66c.9-1.86-.45-4.01-2.51-4.01h-45.65c-1.07,0-2.05.61-2.51,1.57Z"/>
    <path class="cls-1" d="M557.98,259.13l-30.55,62.91c-1.28,2.65-5.26,1.76-5.31-1.18l-.96-60.55c-.02-1.53-1.27-2.75-2.79-2.75h-45.07c-1.07,0-2.05.61-2.51,1.57l-83.85,172.66c-.9,1.86.45,4.01,2.51,4.01h45.65c1.07,0,2.05-.61,2.51-1.57l30.55-62.91c1.28-2.65,5.26-1.76,5.31,1.18l.96,60.55c.02,1.53,1.27,2.75,2.79,2.75h45.07c1.07,0,2.05-.61,2.51-1.57l83.85-172.66c.9-1.86-.45-4.01-2.51-4.01h-45.65c-1.07,0-2.05.61-2.51,1.57Z"/>
  </g>
  <path class="cls-2" d="M536.22,39.95c-8.34-17.35-22.15-34.54-42.41-38.88-54.1-10.63-90.6,60.99-110.82,107.45h0c-.06.14-.09.29-.09.45,0,.63.51,1.14,1.15,1.14.41,0,.77-.21.97-.53h0c14.9-24.1,30.06-48.33,48.84-69.26,14.81-16.3,36.6-32.63,59.46-25.67.05.01.09.03.14.05,50.4,19.2,52.84,136.04,49.75,195.13-.07,1.42,2.01,1.67,2.28.28,10.44-54.15,13.13-120.97-9.26-170.16Z"/>
</svg>